<?xml version="1.0" encoding="utf-8"?>
<!-- Generator: Adobe Illustrator 15.1.0, SVG Export Plug-In . SVG Version: 6.00 Build 0)  -->
<!DOCTYPE svg PUBLIC "-//W3C//DTD SVG 1.1//EN" "http://www.w3.org/Graphics/SVG/1.1/DTD/svg11.dtd">
<svg version="1.1" id="Layer_1" xmlns="http://www.w3.org/2000/svg" xmlns:xlink="http://www.w3.org/1999/xlink" x="0px" y="0px"
	 width="100px" height="100px" viewBox="0 0 100 100" enable-background="new 0 0 100 100" xml:space="preserve">
<g>
	<path fill="#FFAA00" d="M88.426,79.974c0,0.664,0.015,1.322,0.029,1.98C95.663,73.29,100,62.152,100,50
		c0-12.875-4.871-24.611-12.862-33.475c0.854,3.186,1.288,6.682,1.288,10.5V79.974z"/>
	<path fill="#FFAA00" d="M83.152,81.731V47.639H53.258c-10.94,0-20.172,2.523-27.693,7.57c-7.522,5.046-11.284,11.284-11.284,18.705
		C14.281,88.747,25.5,100,50.001,100c12.776,0,24.425-4.796,33.265-12.681c-0.077-1.264-0.113-2.572-0.113-3.929V81.731z"/>
	<path fill="#FFFFFF" d="M21.558,51.252c8.368-5.99,18.835-8.986,31.407-8.986h30.188V26.83C83.152,4.496,65.751,0,50.001,0
		C22.387,0,0,22.387,0,50c0,10.894,3.493,20.965,9.406,29.179c-0.261-1.8-0.4-3.679-0.4-5.654
		C9.006,64.669,13.19,57.245,21.558,51.252z"/>
</g>
</svg>
